# File created by Blade
# Date/Time:  Mon Nov 15 14:44:42 2010
#---------------------------------------------------------
:version 1.10
:name HOM
:units
  mass 1.0
  length 1.000000
  angle deg
:documentation
     Acclaim Skeleton File
:root
   axis xyz
   order TX TY TZ RX RY RZ
   position 0.000000 0.000000 0.000000
   orientation 0 0 0
:bonedata
   begin
      id 1
      name LeftUpLeg_dum
      direction 1.000000 0.000000 0.000000
      length 4.719518
      axis 0.0 0.0 0.0 xyz
   end
   begin
      id 2
      name RightUpLeg_dum
      direction -1.000000 0.000000 0.000000
      length 4.719518
      axis 0.0 0.0 0.0 xyz
   end
   begin
      id 3
      name Spine_dum
      direction 0.000000 1.000000 0.000000
      length 0.039370
      axis 0.0 0.0 0.0 xyz
   end
   begin
      id 4
      name LeftUpLeg
      direction 0.000000 -1.000000 0.000000
      length 19.141694
      axis 0.0 0.0 0.0 xyz
      dof rx ry rz
   end
   begin
      id 5
      name LeftLeg
      direction 0.000000 -1.000000 0.000000
      length 19.555040
      axis 0.0 0.0 0.0 xyz
      dof rx ry rz
   end
   begin
      id 6
      name LeftFoot
      direction 0.000000 -0.258819 0.965926
      length 6.929396
      axis 15.0 0.0 0.0 xyz
      dof rx ry rz
   end
   begin
      id 7
      name LeftToeBase
      direction 0.000000 0.000000 1.000000
      length 2.952750
      axis 0.0 0.0 0.0 xyz
      dof rx ry rz
   end
   begin
      id 8
      name RightUpLeg
      direction 0.000000 -1.000000 0.000000
      length 19.141694
      axis 0.0 0.0 0.0 xyz
      dof rx ry rz
   end
   begin
      id 9
      name RightLeg
      direction 0.000000 -1.000000 0.000000
      length 19.555040
      axis 0.0 0.0 0.0 xyz
      dof rx ry rz
   end
   begin
      id 10
      name RightFoot
      direction 0.000000 -0.258819 0.965926
      length 6.929396
      axis 15.0 0.0 0.0 xyz
      dof rx ry rz
   end
   begin
      id 11
      name RightToeBase
      direction 0.000000 0.000000 1.000000
      length 2.952750
      axis 0.0 0.0 0.0 xyz
      dof rx ry rz
   end
   begin
      id 12
      name Spine
      direction 0.000000 1.000000 0.000000
      length 11.965764
      axis 0.0 0.0 0.0 xyz
      dof rx ry rz
   end
   begin
      id 13
      name Spine1
      direction 0.000000 1.000000 0.000000
      length 0.000000
      axis 0.0 0.0 0.0 xyz
      dof rx ry rz
   end
   begin
      id 14
      name Spine1_dum1
      direction 0.000000 1.000000 0.000000
      length 9.788721
      axis 0.0 0.0 0.0 xyz
   end
   begin
      id 15
      name Spine1_dum2
      direction 0.000000 1.000000 0.000000
      length 9.788721
      axis 0.0 0.0 0.0 xyz
   end
   begin
      id 16
      name Spine1_dum3
      direction 0.000000 1.000000 0.000000
      length 9.788721
      axis 0.0 0.0 0.0 xyz
   end
   begin
      id 17
      name Neck
      direction 0.000000 1.000000 0.000000
      length 7.029632
      axis 0.0 0.0 0.0 xyz
      dof rx ry rz
   end
   begin
      id 18
      name Head
      direction 0.000000 1.000000 0.000000
      length 4.527550
      axis 0.0 0.0 0.0 xyz
      dof rx ry rz
   end
   begin
      id 19
      name LeftShoulder
      direction 1.000000 -0.000004 0.000000
      length 9.320257
      axis 0.0 0.0 -90.0 xyz
      dof rx ry rz
   end
   begin
      id 20
      name LeftArm
      direction 1.000000 -0.000004 0.000000
      length 12.801352
      axis 0.0 0.0 -90.0 xyz
      dof rx ry rz
   end
   begin
      id 21
      name LeftForeArm
      direction 1.000000 -0.000004 0.000000
      length 11.278127
      axis 0.0 0.0 -90.0 xyz
      dof rx ry rz
   end
   begin
      id 22
      name LeftHand
      direction 0.000000 0.000000 0.000000
      length 0.000000
      axis 0.0 0.0 -90.0 xyz
      dof rx ry rz
   end
   begin
      id 23
      name LeftHand_dum1
      direction 0.000000 0.000000 0.000000
      length 0.000000
      axis 0.0 0.0 -90.0 xyz
   end
   begin
      id 24
      name LeftHand_dum2
      direction 1.000000 -0.000004 0.000000
      length 3.937000
      axis 0.0 0.0 -90.0 xyz
   end
   begin
      id 25
      name LeftHandThumb
      direction 0.000000 0.000000 1.000000
      length 3.937000
      axis 0.0 0.0 -90.0 xyz
      dof rx ry rz
   end
   begin
      id 26
      name RightShoulder
      direction -1.000000 -0.000004 0.000000
      length 9.320257
      axis 0.0 0.0 90.0 xyz
      dof rx ry rz
   end
   begin
      id 27
      name RightArm
      direction -1.000000 -0.000004 0.000000
      length 12.801352
      axis 0.0 0.0 90.0 xyz
      dof rx ry rz
   end
   begin
      id 28
      name RightForeArm
      direction -1.000000 -0.000004 0.000000
      length 11.278127
      axis 0.0 0.0 90.0 xyz
      dof rx ry rz
   end
   begin
      id 29
      name RightHand
      direction 0.000000 0.000000 0.000000
      length 0.000000
      axis 0.0 0.0 90.0 xyz
      dof rx ry rz
   end
   begin
      id 30
      name RightHand_dum1
      direction 0.000000 0.000000 0.000000
      length 0.000000
      axis 0.0 0.0 90.0 xyz
   end
   begin
      id 31
      name RightHand_dum2
      direction -1.000000 -0.000004 0.000000
      length 5.393690
      axis 0.0 0.0 90.0 xyz
   end
   begin
      id 32
      name RightHandThumb
      direction 0.000000 0.000000 1.000000
      length 3.937000
      axis 0.0 0.0 90.0 xyz
      dof rx ry rz
   end
:hierarchy
   begin
      root LeftUpLeg_dum RightUpLeg_dum Spine_dum
      LeftUpLeg_dum LeftUpLeg
      RightUpLeg_dum RightUpLeg
      Spine_dum Spine
      LeftUpLeg LeftLeg
      LeftLeg LeftFoot
      LeftFoot LeftToeBase
      RightUpLeg RightLeg
      RightLeg RightFoot
      RightFoot RightToeBase
      Spine Spine1
      Spine1 Spine1_dum1 Spine1_dum2 Spine1_dum3
      Spine1_dum1 Neck
      Spine1_dum2 LeftShoulder
      Spine1_dum3 RightShoulder
      Neck Head
      LeftShoulder LeftArm
      LeftArm LeftForeArm
      LeftForeArm LeftHand
      LeftHand LeftHand_dum1 LeftHand_dum2
      LeftHand_dum1 LeftHandThumb
      RightShoulder RightArm
      RightArm RightForeArm
      RightForeArm RightHand
      RightHand RightHand_dum1 RightHand_dum2
      RightHand_dum1 RightHandThumb
   end

# File created by Blade
# Date/Time:  Mon Nov 15 14:56:25 2010
# Frame Rate: 200.000 fps
#------------------------------------------------------
:FULLY-SPECIFIED
:DEGREES
128
root  5.712590 40.222031 -86.706439 -15.352191 -0.707225 -2.410705
LeftUpLeg  11.741137 9.981310 4.046634
LeftLeg  19.611233 -0.000000 0.000000
LeftFoot  -12.281420 8.453567 1.774872
LeftToeBase  -22.597473 0.000000 -0.000000
RightUpLeg  17.270296 -2.387571 1.838192
RightLeg  4.540460 -0.000000 0.000000
RightFoot  -6.461221 -19.285644 -6.905386
RightToeBase  -36.226388 0.000000 -0.000000
Spine  12.315356 -0.934925 1.934226
Spine1  1.092662 1.225993 -2.514942
Neck  16.007109 -3.390999 -1.954599
Head  -21.046430 -5.973604 7.757889
LeftShoulder  -14.984736 8.874934 10.451062
LeftArm  0.795902 -43.750283 -41.589480
LeftForeArm  43.253076 -0.000000 0.000000
LeftHand  -6.200338 4.397656 -1.329111
LeftHandThumb  0.000000 -0.000000 0.000000
RightShoulder  -13.985142 -12.868589 -10.621585
RightArm  2.874438 27.567552 48.797773
RightForeArm  40.677094 -0.000000 0.000000
RightHand  -1.790215 0.313884 7.515863
RightHandThumb  0.000000 -0.000000 0.000000
129
root  5.749383 40.206711 -86.660109 -15.296371 -0.711911 -2.499552
LeftUpLeg  12.161222 9.365641 3.891115
LeftLeg  18.658106 -0.000000 0.000000
LeftFoot  -12.017270 8.428338 1.772631
LeftToeBase  -22.728120 0.000000 -0.000000
RightUpLeg  17.175316 -2.404452 1.868625
RightLeg  4.750642 -0.000000 0.000000
RightFoot  -6.588054 -19.232392 -6.809433
RightToeBase  -36.082518 0.000000 -0.000000
Spine  12.265475 -0.983561 1.949299
Spine1  1.053051 1.185231 -2.457831
Neck  16.187248 -3.388036 -1.970806
Head  -21.226174 -5.923284 7.771991
LeftShoulder  -15.058172 8.994966 10.319686
LeftArm  0.386791 -43.255723 -41.759253
LeftForeArm  43.469388 -0.000000 0.000000
LeftHand  -5.851878 4.409202 -0.972579
LeftHandThumb  0.000000 -0.000000 0.000000
RightShoulder  -14.077776 -12.971873 -10.495168
RightArm  2.750129 26.986712 49.010314
RightForeArm  40.886509 -0.000000 0.000000
RightHand  -1.668408 0.380420 7.458909
RightHandThumb  0.000000 -0.000000 0.000000
130
root  5.787550 40.188509 -86.612171 -15.256137 -0.696997 -2.608867
LeftUpLeg  12.564214 8.817993 3.717227
LeftLeg  17.888729 -0.000000 0.000000
LeftFoot  -11.393919 8.768540 2.083167
LeftToeBase  -22.565090 0.000000 -0.000000
RightUpLeg  17.070988 -2.383402 1.930266
RightLeg  5.017143 -0.000000 0.000000
RightFoot  -6.747813 -19.229490 -6.710699
RightToeBase  -36.006793 0.000000 -0.000000
Spine  12.229434 -1.049575 1.976952
Spine1  1.040388 1.133341 -2.385211
Neck  16.275318 -3.347153 -1.988551
Head  -21.318477 -5.897021 7.779299
LeftShoulder  -15.164699 9.078817 10.158587
LeftArm  0.030226 -42.688669 -41.953558
LeftForeArm  43.620033 -0.000000 0.000000
LeftHand  -5.566782 4.443387 -0.667159
LeftHandThumb  0.000000 -0.000000 0.000000
RightShoulder  -14.202396 -13.040343 -10.372424
RightArm  2.642106 26.340320 49.231760
RightForeArm  41.090372 -0.000000 0.000000
RightHand  -1.604142 0.486955 7.480971
RightHandThumb  0.000000 -0.000000 0.000000
131
root  5.827372 40.169235 -86.564740 -15.215933 -0.682006 -2.718171
LeftUpLeg  12.968307 8.271569 3.539700
LeftLeg  17.119351 -0.000000 0.000000
LeftFoot  -10.768131 9.105375 2.397722
LeftToeBase  -22.402059 0.000000 -0.000000
RightUpLeg  16.966683 -2.362241 1.991866
RightLeg  5.283644 -0.000000 0.000000
RightFoot  -6.907563 -19.226328 -6.611975
RightToeBase  -35.931069 0.000000 -0.000000
Spine  12.193360 -1.115572 2.004647
Spine1  1.027660 1.081468 -2.312581
Neck  16.363372 -3.306244 -2.006232
Head  -21.410772 -5.870747 7.786565
LeftShoulder  -15.271490 9.162372 9.997293
LeftArm  -0.325722 -42.122510 -42.150870
LeftForeArm  43.770679 -0.000000 0.000000
LeftHand  -5.281495 4.476055 -0.361559
LeftHandThumb  0.000000 -0.000000 0.000000
RightShoulder  -14.327200 -13.108552 -10.249494
RightArm  2.531904 25.694305 49.453343
RightForeArm  41.294234 -0.000000 0.000000
RightHand  -1.539833 0.593465 7.503153
RightHandThumb  0.000000 -0.000000 0.000000
132
root  5.870557 40.149403 -86.520862 -15.182873 -0.630164 -2.812243
LeftUpLeg  13.229163 7.595902 3.280154
LeftLeg  16.672069 -0.000000 0.000000
LeftFoot  -11.061881 9.887560 2.677862
LeftToeBase  -22.423536 0.000000 -0.000000
RightUpLeg  16.832188 -2.291947 2.051806
RightLeg  5.623922 -0.000000 0.000000
RightFoot  -7.115698 -19.295416 -6.483297
RightToeBase  -35.900332 0.000000 -0.000000
Spine  12.191958 -1.193076 2.015981
Spine1  0.995858 1.011667 -2.248148
Neck  16.452917 -3.324860 -1.997732
Head  -21.515645 -5.812137 7.745846
LeftShoulder  -15.380684 9.238268 9.836316
LeftArm  -0.649852 -41.517840 -42.397132
LeftForeArm  43.849743 -0.000000 0.000000
LeftHand  -4.982327 4.514085 -0.101704
LeftHandThumb  0.000000 -0.000000 0.000000
RightShoulder  -14.465584 -13.186174 -10.078536
RightArm  2.423038 25.038815 49.636419
RightForeArm  41.468212 -0.000000 0.000000
RightHand  -1.433058 0.642415 7.823214
RightHandThumb  0.000000 -0.000000 0.000000
133
root  5.912628 40.131054 -86.475783 -15.149899 -0.578268 -2.906284
LeftUpLeg  13.492708 6.921419 3.017901
LeftLeg  16.224786 -0.000000 0.000000
LeftFoot  -11.352464 10.671145 2.954613
LeftToeBase  -22.445013 0.000000 -0.000000
RightUpLeg  16.697772 -2.221513 2.111578
RightLeg  5.964199 -0.000000 0.000000
RightFoot  -7.324084 -19.364063 -6.354299
RightToeBase  -35.869596 0.000000 -0.000000
Spine  12.190541 -1.270579 2.027318
Spine1  0.963979 0.941902 -2.183677
Neck  16.542461 -3.343490 -1.989260
Head  -21.620549 -5.753601 7.705024
LeftShoulder  -15.490117 9.313861 9.675158
LeftArm  -0.974437 -40.914220 -42.645653
LeftForeArm  43.928807 -0.000000 0.000000
LeftHand  -4.682975 4.550761 0.158360
LeftHandThumb  0.000000 -0.000000 0.000000
RightShoulder  -14.604250 -13.263394 -9.907331
RightArm  2.312446 24.383642 49.819901
RightForeArm  41.642191 -0.000000 0.000000
RightHand  -1.326010 0.690767 8.143369
RightHandThumb  0.000000 -0.000000 0.000000
134
root  5.945151 40.116635 -86.422700 -15.139903 -0.520640 -2.957211
LeftUpLeg  13.606615 6.165449 2.709407
LeftLeg  16.142977 -0.000000 0.000000
LeftFoot  -11.881382 11.536166 2.769729
LeftToeBase  -22.559039 0.000000 -0.000000
RightUpLeg  16.570599 -1.923320 2.226158
RightLeg  6.351979 -0.000000 0.000000
RightFoot  -7.554352 -19.673900 -6.150990
RightToeBase  -35.689970 0.000000 -0.000000
Spine  12.187088 -1.313842 2.007382
Spine1  0.936110 0.892109 -2.168525
Neck  16.608059 -3.368934 -1.955976
Head  -21.594811 -5.703776 7.713634
LeftShoulder  -15.533347 9.407649 9.492433
LeftArm  -1.294894 -40.251922 -42.825595
LeftForeArm  43.983898 -0.000000 0.000000
LeftHand  -4.595323 4.468890 0.214603
LeftHandThumb  0.000000 -0.000000 0.000000
RightShoulder  -14.713267 -13.261641 -9.703049
RightArm  2.009987 23.735612 49.991701
RightForeArm  41.925597 -0.000000 0.000000
RightHand  -1.605225 0.694670 8.563921
RightHandThumb  0.000000 -0.000000 0.000000
135
root  5.981710 40.105441 -86.370812 -15.129959 -0.463002 -3.008127
LeftUpLeg  13.724456 5.410100 2.399816
LeftLeg  16.061168 -0.000000 0.000000
LeftFoot  -12.414849 12.399467 2.576086
LeftToeBase  -22.673064 0.000000 -0.000000
RightUpLeg  16.444044 -1.624874 2.340056
RightLeg  6.739760 -0.000000 0.000000
RightFoot  -7.786238 -19.982962 -5.945960
RightToeBase  -35.510345 0.000000 -0.000000
Spine  12.183651 -1.357107 1.987448
Spine1  0.908227 0.842324 -2.153348
Neck  16.673643 -3.394415 -1.922719
Head  -21.569067 -5.653954 7.722266
LeftShoulder  -15.576892 9.501299 9.309585
LeftArm  -1.614964 -39.590398 -43.008610
LeftForeArm  44.038989 -0.000000 0.000000
LeftHand  -4.507761 4.386933 0.270714
LeftHandThumb  0.000000 -0.000000 0.000000
RightShoulder  -14.822276 -13.259511 -9.498771
RightArm  1.706894 23.088421 50.166378
RightForeArm  42.209003 -0.000000 0.000000
RightHand  -1.884404 0.700622 8.984449
RightHandThumb  0.000000 -0.000000 0.000000
136
root  6.039197 40.098132 -86.329575 -15.102497 -0.359002 -2.827998
LeftUpLeg  13.821689 4.657705 1.800181
LeftLeg  15.810669 -0.000000 0.000000
LeftFoot  -12.119263 13.198391 2.569254
LeftToeBase  -22.575956 0.000000 -0.000000
RightUpLeg  16.134392 -1.505865 2.114357
RightLeg  7.433835 -0.000000 0.000000
RightFoot  -8.135634 -20.089555 -5.842715
RightToeBase  -35.476684 0.000000 -0.000000
Spine  12.155900 -1.404395 1.774150
Spine1  1.039413 0.729271 -2.132803
Neck  16.563221 -3.423019 -1.877333
Head  -21.557046 -5.626299 7.614796
LeftShoulder  -15.833046 9.650585 9.005940
LeftArm  -1.504991 -39.113862 -43.560932
LeftForeArm  43.909286 -0.000000 0.000000
LeftHand  -4.149965 4.511030 0.577388
LeftHandThumb  0.000000 -0.000000 0.000000
RightShoulder  -15.129642 -13.473438 -9.143778
RightArm  2.043674 22.355866 50.441957
RightForeArm  42.211211 -0.000000 0.000000
RightHand  -1.596884 0.875723 8.979913
RightHandThumb  0.000000 -0.000000 0.000000
137
root  6.099255 40.093073 -86.291409 -15.074708 -0.255088 -2.647822
LeftUpLeg  13.926713 3.906364 1.199857
LeftLeg  15.560170 -0.000000 0.000000
LeftFoot  -11.822777 13.997338 2.566646
LeftToeBase  -22.478849 0.000000 -0.000000
RightUpLeg  15.824291 -1.388077 1.888031
RightLeg  8.127911 -0.000000 0.000000
RightFoot  -8.485472 -20.195554 -5.738708
RightToeBase  -35.443022 0.000000 -0.000000
Spine  12.128326 -1.451786 1.560871
Spine1  1.170556 0.616171 -2.112517
Neck  16.452772 -3.451536 -1.831891
Head  -21.545078 -5.598621 7.507336
LeftShoulder  -16.090114 9.798528 8.701485
LeftArm  -1.401639 -38.636533 -44.108389
LeftForeArm  43.779582 -0.000000 0.000000
LeftHand  -3.791446 4.633213 0.884887
LeftHandThumb  0.000000 -0.000000 0.000000
RightShoulder  -15.438642 -13.685504 -8.787291
RightArm  2.374924 21.621842 50.711480
RightForeArm  42.213418 -0.000000 0.000000
RightHand  -1.309363 1.050844 8.976255
RightHandThumb  0.000000 -0.000000 0.000000
138
root  6.146271 40.089123 -86.250680 -15.031877 -0.134412 -2.494020
LeftUpLeg  13.974826 3.340176 0.739117
LeftLeg  15.388763 -0.000000 0.000000
LeftFoot  -11.541571 14.439060 2.505625
LeftToeBase  -22.537921 0.000000 -0.000000
RightUpLeg  15.441306 -1.120843 1.772531
RightLeg  8.925168 -0.000000 0.000000
RightFoot  -8.799368 -20.455905 -5.518125
RightToeBase  -35.368303 0.000000 -0.000000
Spine  12.082449 -1.464593 1.373272
Spine1  1.283313 0.542885 -2.143817
Neck  16.410524 -3.596894 -1.752138
Head  -21.512326 -5.576263 7.439187
LeftShoulder  -16.213359 9.983075 8.460089
LeftArm  -1.273969 -38.103954 -44.660989
LeftForeArm  43.578967 -0.000000 0.000000
LeftHand  -3.664610 4.693339 1.035987
LeftHandThumb  0.000000 -0.000000 0.000000
RightShoulder  -15.717328 -13.814776 -8.445144
RightArm  2.470072 20.968911 51.033356
RightForeArm  42.271447 -0.000000 0.000000
RightHand  -1.303129 1.071883 9.236531
RightHandThumb  0.000000 -0.000000 0.000000
139
root  6.188907 40.085468 -86.211016 -14.988722 -0.013852 -2.340128
LeftUpLeg  14.027470 2.774392 0.278145
LeftLeg  15.217356 -0.000000 0.000000
LeftFoot  -11.260284 14.881067 2.446725
LeftToeBase  -22.596994 0.000000 -0.000000
RightUpLeg  15.057814 -0.854388 1.655256
RightLeg  9.722425 -0.000000 0.000000
RightFoot  -9.114869 -20.715115 -5.295645
RightToeBase  -35.293584 0.000000 -0.000000
Spine  12.036615 -1.477551 1.185684
Spine1  1.396110 0.469660 -2.175261
Neck  16.368066 -3.742194 -1.672264
Head  -21.479602 -5.553866 7.371054
LeftShoulder  -16.337464 10.167109 8.218152
LeftArm  -1.153704 -37.570440 -45.208111
LeftForeArm  43.378352 -0.000000 0.000000
LeftHand  -3.537605 4.753131 1.187234
LeftHandThumb  0.000000 -0.000000 0.000000
RightShoulder  -15.996958 -13.942428 -8.102164
RightArm  2.560901 20.315495 51.352696
RightForeArm  42.329476 -0.000000 0.000000
RightHand  -1.296799 1.092894 9.496812
RightHandThumb  0.000000 -0.000000 0.000000
